<svg width="24" height="24" viewBox="0 0 24 24" fill="none" xmlns="http://www.w3.org/2000/svg">
<g id="Interface essential/Location">
<g id="Icon">
<path d="M16.82 15.485C16.4551 15.3016 16.0106 15.4439 15.82 15.805C15.6438 16.1729 15.7895 16.6142 16.15 16.805C17.03 17.255 17.53 17.805 17.53 18.335C17.53 19.465 15.17 20.725 12.01 20.725C8.85 20.725 6.48 19.475 6.48 18.375C6.48 17.855 6.98 17.295 7.86 16.845C8.1239 16.7392 8.30528 16.4932 8.3284 16.2098C8.35151 15.9265 8.2124 15.6544 7.96914 15.5072C7.72588 15.36 7.4203 15.363 7.18 15.515C5.9659 15.9726 5.11948 17.083 5 18.375C5 20.595 8 22.265 12 22.265C16 22.265 19 20.595 19 18.375C18.8916 17.0718 18.0432 15.9472 16.82 15.485Z" fill="#1F1F20"/>
<path fill-rule="evenodd" clip-rule="evenodd" d="M11.25 18.815V14.495C7.95689 14.0982 5.54253 11.2053 5.74127 7.89433C5.94 4.58336 8.68308 2 12 2C15.3169 2 18.06 4.58336 18.2587 7.89433C18.4575 11.2053 16.0431 14.0982 12.75 14.495V18.815C12.75 19.2292 12.4142 19.565 12 19.565C11.5858 19.565 11.25 19.2292 11.25 18.815ZM16.4242 6.44113C15.6818 4.65406 13.9351 3.49094 12 3.49498C9.36789 3.50048 7.2355 5.63287 7.23 8.26498C7.22596 10.2001 8.38908 11.9468 10.1762 12.6892C11.9632 13.4316 14.0216 13.0233 15.39 11.6549C16.7583 10.2866 17.1666 8.2282 16.4242 6.44113Z" fill="#1F1F20"/>
<path d="M9.59 9.37498C10.0042 9.37498 10.34 9.0392 10.34 8.62498C10.34 7.47623 11.2712 6.54498 12.42 6.54498C12.8342 6.54498 13.17 6.2092 13.17 5.79498C13.17 5.38077 12.8342 5.04498 12.42 5.04498C11.4679 5.04763 10.5558 5.4284 9.88441 6.10354C9.21303 6.77867 8.83735 7.69285 8.84 8.64498C8.84264 8.84125 8.92314 9.02843 9.06379 9.16533C9.20445 9.30224 9.39374 9.37765 9.59 9.37498Z" fill="#1F1F20"/>
</g>
</g>
</svg>
