<svg width="24" height="24" viewBox="0 0 24 24" fill="none" xmlns="http://www.w3.org/2000/svg">
<g id="Comercial/Discount-2">
<path id="Icon" fill-rule="evenodd" clip-rule="evenodd" d="M22.2132 7.76656C22.5814 8.65328 22.3518 9.67572 21.64 10.32C21.1653 10.7488 20.8935 11.358 20.8916 11.9978C20.8897 12.6375 21.1578 13.2484 21.63 13.68C22.3401 14.3231 22.5699 15.3428 22.2045 16.2284C21.8391 17.114 20.957 17.6748 20 17.63C19.3631 17.6013 18.7434 17.8417 18.2926 18.2926C17.8417 18.7434 17.6013 19.3631 17.63 20C17.6509 20.9337 17.0977 21.785 16.2359 22.1451C15.3742 22.5053 14.3798 22.3009 13.73 21.63C13.2998 21.1565 12.6897 20.8866 12.05 20.8866C11.4103 20.8866 10.8002 21.1565 10.37 21.63C9.73586 22.3829 8.68875 22.6413 7.77717 22.2698C6.86559 21.8983 6.29731 20.9817 6.37 20C6.39874 19.3631 6.15828 18.7434 5.70744 18.2926C5.2566 17.8417 4.63694 17.6013 4 17.63C3.06625 17.6509 2.21503 17.0977 1.85486 16.2359C1.4947 15.3742 1.69911 14.3798 2.37 13.73C2.84346 13.2998 3.1134 12.6897 3.1134 12.05C3.1134 11.4103 2.84346 10.8002 2.37 10.37C1.61712 9.73586 1.35874 8.68875 1.73021 7.77717C2.10167 6.86559 3.01833 6.29731 4 6.37C4.63694 6.39873 5.2566 6.15828 5.70744 5.70744C6.15828 5.2566 6.39874 4.63694 6.37 4C6.32521 3.04302 6.88603 2.16094 7.77161 1.7955C8.6572 1.43006 9.67688 1.65993 10.32 2.37C10.7502 2.84346 11.3603 3.1134 12 3.1134C12.6397 3.1134 13.2498 2.84346 13.68 2.37C14.3231 1.65993 15.3428 1.43006 16.2284 1.7955C17.114 2.16094 17.6748 3.04302 17.63 4C17.6013 4.63694 17.8417 5.2566 18.2926 5.70744C18.7434 6.15828 19.3631 6.39873 20 6.37C20.9588 6.32063 21.845 6.87984 22.2132 7.76656ZM10.16 9.75C10.16 9.33578 9.82421 9 9.41 9C8.99804 9.00538 8.66539 9.33804 8.66 9.75C8.66 10.1642 8.99579 10.5 9.41 10.5C9.82421 10.5 10.16 10.1642 10.16 9.75ZM14.68 15C14.2658 15 13.93 14.6642 13.93 14.25C13.93 13.8358 14.2658 13.5 14.68 13.5C15.0942 13.5 15.43 13.8358 15.43 14.25C15.4246 14.662 15.092 14.9946 14.68 15ZM9.65 15.41L15.41 9.64V9.65C15.6854 9.35449 15.6772 8.89399 15.3916 8.60838C15.106 8.32276 14.6455 8.31464 14.35 8.59L8.59 14.35C8.44705 14.4893 8.36643 14.6804 8.36643 14.88C8.36643 15.0796 8.44705 15.2707 8.59 15.41C8.72784 15.5546 8.92025 15.6345 9.12 15.63C9.31907 15.6309 9.51012 15.5516 9.65 15.41Z" fill="#2D7161"/>
</g>
</svg>
