<svg width="24" height="24" viewBox="0 0 24 24" fill="none" xmlns="http://www.w3.org/2000/svg">
<g id="Interface essential/Flame">
<path id="Icon" d="M12.0511 2L10.6811 4.8C9.70213 6.80035 8.39008 8.61962 6.80108 10.18L6.62108 10.35C5.60054 11.3408 5.01744 12.6977 5.00108 14.12V14.3C4.97405 17.0851 6.63368 19.6101 9.20108 20.69L9.46108 20.8C11.1449 21.5152 13.0472 21.5152 14.7311 20.8H14.7911C17.3777 19.6762 19.0373 17.1099 19.0011 14.29V9.95C18.1391 11.9185 16.5737 13.4946 14.6111 14.37C14.6111 14.37 14.6111 14.37 14.5511 14.37C14.4911 14.37 13.7911 14.66 13.4911 14.37C13.2231 14.0989 13.1975 13.6712 13.4311 13.37L13.5011 13.32H13.5511C15.8468 11.575 16.3821 8.34172 14.7711 5.95C13.4711 3.97 12.0511 2 12.0511 2Z" fill="#2D7161"/>
</g>
</svg>
