<svg width="24" height="24" viewBox="0 0 24 24" fill="none" xmlns="http://www.w3.org/2000/svg">
<g id="Interface essential/Menu-4">
<g id="Icon">
<path d="M11 7.5C11 9.433 9.433 11 7.5 11C5.567 11 4 9.433 4 7.5C4 5.567 5.567 4 7.5 4C9.433 4 11 5.567 11 7.5Z" fill="#2D7161"/>
<path d="M11 17.5C11 19.433 9.433 21 7.5 21C5.567 21 4 19.433 4 17.5C4 15.567 5.567 14 7.5 14C9.433 14 11 15.567 11 17.5Z" fill="#2D7161"/>
<path d="M21 17.5C21 19.433 19.433 21 17.5 21C15.567 21 14 19.433 14 17.5C14 15.567 15.567 14 17.5 14C19.433 14 21 15.567 21 17.5Z" fill="#2D7161"/>
</g>
</g>
</svg>
