<svg width="24" height="24" viewBox="0 0 24 24" fill="none" xmlns="http://www.w3.org/2000/svg">
<g id="Interface essential/SandClock">
<path id="Icon" fill-rule="evenodd" clip-rule="evenodd" d="M19.8014 5.55C19.802 6.39361 19.5004 7.20953 18.9514 7.85L17.1214 9.93C16.012 11.2476 16.012 13.1724 17.1214 14.49L18.9114 16.62C19.7883 17.6671 19.9803 19.127 19.404 20.3652C18.8277 21.6035 17.5872 22.3966 16.2214 22.4H8.52138C7.15377 22.4005 5.90965 21.6089 5.33084 20.3698C4.75203 19.1307 4.94331 17.6685 5.82138 16.62L7.63138 14.46C8.73057 13.1538 8.73057 11.2462 7.63138 9.94L5.82138 7.78C4.94331 6.7315 4.75203 5.26932 5.33084 4.03024C5.90965 2.79115 7.15377 1.99948 8.52138 2H16.2814C17.2202 1.99997 18.1201 2.37494 18.7811 3.04157C19.4421 3.7082 19.8094 4.61125 19.8014 5.55ZM9.62138 18.46H15.1814C15.4496 18.4922 15.7124 18.3673 15.8567 18.1389C16.001 17.9105 16.001 17.6195 15.8567 17.3911C15.7124 17.1627 15.4496 17.0378 15.1814 17.07H9.62138C9.35317 17.0378 9.09036 17.1627 8.94607 17.3911C8.80179 17.6195 8.80179 17.9105 8.94607 18.1389C9.09036 18.3673 9.35317 18.4922 9.62138 18.46Z" fill="#2D7161"/>
</g>
</svg>
