<svg width="24" height="24" viewBox="0 0 24 24" fill="none" xmlns="http://www.w3.org/2000/svg">
<g id="Comercial/Shopping-bag">
<path id="Icon" fill-rule="evenodd" clip-rule="evenodd" d="M20.74 6.86L22 15.2C22.51 18.85 20 22.17 16.6 22.2H7.34001C4.00001 22.2 1.46001 18.85 2.00001 15.2L3.26001 6.86C3.55913 4.10237 5.82868 1.97732 8.60001 1.86H15.4C18.1713 1.97732 20.4409 4.10237 20.74 6.86ZM8.10001 7.81C8.1055 9.96163 9.84838 11.7045 12 11.71C14.1516 11.7045 15.8945 9.96163 15.9 7.81C15.9 7.39579 15.5642 7.06 15.15 7.06C14.7358 7.06 14.4 7.39579 14.4 7.81C14.4 9.13548 13.3255 10.21 12 10.21C10.6745 10.21 9.60001 9.13548 9.60001 7.81C9.60001 7.39579 9.26422 7.06 8.85001 7.06C8.43579 7.06 8.10001 7.39579 8.10001 7.81Z" fill="#2D7161"/>
</g>
</svg>
