<svg width="146" height="195" viewBox="0 0 146 195" fill="none" xmlns="http://www.w3.org/2000/svg">
<path d="M113.311 105.066C112.849 105.09 112.365 105.064 111.874 105.16L111.762 89.5446L22.8899 90.0111L23.1341 135.832C23.2791 160.357 43.2422 180.165 67.8393 180.049C89.3047 179.934 107.166 164.601 111.214 144.28C111.962 144.369 112.76 144.436 113.514 144.403C124.368 144.353 133.118 135.523 133.045 124.62C132.995 113.766 124.165 105.016 113.311 105.066ZM122.939 126.118C122.983 131.655 118.467 136.22 112.93 136.264C112.638 136.273 112.324 136.232 112.033 136.24C112.024 135.949 112.037 135.707 112.05 135.464L111.964 118.006C112.625 117.896 113.258 117.857 113.913 117.867C119.479 117.752 122.874 120.531 122.939 126.118Z" fill="#2D7161"/>
<path d="M111.795 89.547C111.771 84.9669 91.8528 81.3582 67.3059 81.4868C42.7591 81.6154 22.8794 85.4325 22.9033 90.0126C22.9273 94.5927 42.8459 98.2013 67.3928 98.0728C91.9396 97.9442 111.819 94.1271 111.795 89.547Z" fill="#EAF1EF"/>
<path d="M45.2749 53.1003C42.1444 59.0467 45.4287 66.8445 52.6105 70.5122C59.096 73.8211 66.5277 72.627 70.2089 67.9835L70.4465 67.2575C71.7935 63.142 71.7392 58.6962 70.2922 54.6148C68.8295 52.3414 66.6666 50.3393 63.9212 48.9439C56.7592 45.2961 48.4054 47.1539 45.2749 53.1003Z" fill="#E36C59"/>
<path d="M62.8594 60.1601C60.9838 58.6593 59.564 56.6337 58.1813 54.6836C57.7328 54.0588 57.2846 53.3963 56.8173 52.7714C54.9105 50.2337 52.9798 48.5065 51.0063 47.6083C50.4386 47.9628 49.9083 48.3742 49.4154 48.8235C51.4831 49.7411 53.4501 51.676 55.2414 54.6087C55.6332 55.252 56.0247 55.933 56.3976 56.5951C57.5909 58.6759 58.8215 60.8323 60.6204 62.5399C63.3372 65.1391 67.2118 66.4639 70.6826 66.052C70.7586 65.9582 70.8344 65.8833 70.8916 65.7894L70.9104 62.7737C68.1761 62.964 65.2037 62.0407 62.8594 60.1601Z" fill="#FFC222"/>
<path d="M74.928 25.3225C72.6494 29.6507 75.0399 35.3265 80.2674 37.9961C84.988 40.4046 90.3973 39.5354 93.0768 36.1556L93.2497 35.6272C94.2301 32.6316 94.1907 29.3956 93.1374 26.4249C92.0728 24.7701 90.4984 23.3128 88.5001 22.2972C83.2871 19.642 77.2066 20.9942 74.928 25.3225Z" fill="#E36C59"/>
<path d="M87.7272 30.4611C86.362 29.3687 85.3286 27.8943 84.3222 26.4749C83.9957 26.0201 83.6695 25.5379 83.3293 25.0831C81.9414 23.236 80.5361 21.9787 79.0997 21.325C78.6865 21.5831 78.3005 21.8825 77.9417 22.2095C79.4467 22.8774 80.8785 24.2858 82.1822 26.4204C82.4674 26.8887 82.7525 27.3843 83.0238 27.8662C83.8925 29.3808 84.7882 30.9504 86.0975 32.1933C88.075 34.0852 90.8952 35.0495 93.4215 34.7497C93.4768 34.6814 93.532 34.6269 93.5736 34.5585L93.5873 32.3635C91.5971 32.502 89.4336 31.83 87.7272 30.4611Z" fill="#FFC222"/>
<path d="M125.642 45.6107C121.763 39.4902 112.712 38.279 105.433 42.9083C98.8615 47.0905 95.992 54.5938 98.3582 60.5138C100.724 66.4338 107.245 68.391 110.81 67.86C114.374 67.329 116.751 66.8411 119.527 65.0678C126.778 60.446 129.522 51.7313 125.642 45.6107Z" fill="#FFC222"/>
<path d="M108.417 55.8675C110.947 54.8884 113.732 54.6524 116.421 54.4097C117.286 54.3267 118.188 54.2652 119.063 54.1638C122.624 53.7431 125.407 52.8388 127.405 51.4218C127.381 50.6661 127.281 49.9147 127.122 49.1782C125.052 50.6761 122.045 51.498 118.164 51.5815C117.313 51.5987 116.426 51.5943 115.568 51.5824C112.858 51.5659 110.054 51.5429 107.365 52.3296C103.284 53.5064 99.7894 56.5375 98.2205 60.1605C98.2689 60.2879 98.299 60.4046 98.3582 60.5137L99.8557 63.1662C101.223 60.3882 105.249 57.0886 108.417 55.8675Z" fill="#E36C59"/>
<path d="M55.1408 16.5159C57.9261 12.4585 56.2647 6.48404 51.4294 3.17516C47.0627 0.189383 41.6111 0.402143 38.5468 3.46104C35.4824 6.51994 36.0023 11.1142 37.2861 13.1982C38.5699 15.2822 39.5093 16.6354 41.3583 17.8955C46.1811 21.1882 52.3555 20.5732 55.1408 16.5159Z" fill="#FFC222"/>
<path d="M44.135 8.50037C45.4224 9.81892 46.3136 11.4944 47.1835 13.1089C47.4664 13.6267 47.7456 14.1732 48.0429 14.6928C49.2568 16.8038 50.5649 18.3 51.9834 19.169C52.4489 18.9522 52.8912 18.6887 53.3086 18.3928C51.8203 17.5002 50.504 15.8426 49.4151 13.4416C49.177 12.915 48.9427 12.3598 48.7209 11.8207C48.0074 10.1244 47.2726 8.3671 46.063 6.89823C44.238 4.66438 41.412 3.29242 38.7307 3.28063C38.664 3.3449 38.5992 3.39483 38.5469 3.46096L37.2907 5.10455C39.3905 5.21602 42.5263 6.84859 44.135 8.50037Z" fill="#E36C59"/>
</svg>
