<svg width="116" height="118" viewBox="0 0 116 118" fill="none" xmlns="http://www.w3.org/2000/svg">
<path d="M97.0063 35.163C85.5168 17.8563 58.713 14.4316 37.1525 27.5216C17.6911 39.3473 9.19286 60.564 16.2007 77.3036C23.2085 94.0431 42.5199 99.5774 53.0776 98.0759C63.6353 96.5745 70.6725 95.1948 78.8961 90.1806C100.37 77.1119 108.496 52.4698 97.0063 35.163Z" fill="#C7CCD0"/>
<path d="M45.9905 64.1649C53.4853 61.3964 61.7317 60.729 69.6969 60.0429C72.2581 59.808 74.928 59.6343 77.5214 59.3475C88.0673 58.1579 96.31 55.6009 102.227 51.5942C102.156 49.4574 101.859 47.3324 101.388 45.25C95.2568 49.4854 86.3527 51.8096 74.8584 52.0456C72.339 52.0944 69.7109 52.082 67.1692 52.0483C59.1443 52.0017 50.8381 51.9364 42.8741 54.161C30.7873 57.4885 20.4392 66.0594 15.7925 76.304C15.9359 76.6643 16.0249 76.9941 16.2003 77.3026L20.6353 84.803C24.684 76.9478 36.6084 67.6179 45.9905 64.1649Z" fill="#EAF1EF"/>
</svg>
